<?xml version="1.0" standalone="no"?>
<!DOCTYPE svg PUBLIC "-//W3C//DTD SVG 20010904//EN"
 "http://www.w3.org/TR/2001/REC-SVG-20010904/DTD/svg10.dtd">
<svg version="1.0" xmlns="http://www.w3.org/2000/svg"
 width="6000.000000pt" height="3000.000000pt" viewBox="0 0 6000.000000 3000.000000"
 preserveAspectRatio="xMidYMid meet">

<g transform="translate(0.000000,3000.000000) scale(0.100000,-0.100000)"
fill="#000000" stroke="none">
<path d="M19715 29304 c-206 -46 -386 -190 -476 -379 -54 -112 -72 -191 -72
-310 1 -440 400 -775 823 -691 105 21 247 88 315 149 l50 45 -44 45 -44 46
-55 -45 c-235 -192 -522 -176 -738 40 -99 99 -147 189 -170 316 -63 358 235
699 591 677 123 -8 249 -62 340 -148 l31 -29 44 45 44 45 -25 26 c-44 49 -165
120 -250 148 -106 36 -257 44 -364 20z"/>
<path d="M23020 29304 c-36 -7 -108 -35 -160 -60 -79 -39 -109 -62 -180 -133
-94 -95 -142 -174 -182 -301 -19 -63 -23 -95 -22 -200 1 -106 5 -137 27 -205
121 -370 510 -576 872 -461 180 57 320 176 409 346 182 348 42 783 -309 956
-144 71 -301 91 -455 58z m274 -119 c195 -51 366 -220 419 -415 62 -224 -14
-456 -200 -611 -59 -49 -170 -103 -241 -118 -388 -80 -753 315 -653 708 55
218 226 390 440 440 59 14 173 12 235 -4z"/>
<path d="M41705 29305 c-180 -39 -339 -150 -440 -305 -140 -215 -154 -467 -39
-700 39 -79 62 -110 133 -181 72 -71 102 -93 181 -132 122 -60 230 -82 353
-73 146 10 302 74 412 170 l40 35 -47 47 -46 47 -48 -42 c-57 -50 -130 -92
-204 -117 -81 -27 -234 -25 -318 4 -286 101 -454 403 -387 691 48 203 226 384
430 436 158 40 348 -8 472 -119 l50 -45 48 48 47 49 -58 46 c-162 129 -387
183 -579 141z"/>
<path d="M15650 29293 c0 -5 134 -312 298 -683 l299 -675 70 -3 c67 -3 70 -2
82 25 18 38 582 1315 588 1331 4 10 -11 12 -67 10 l-73 -3 -258 -585 c-142
-322 -261 -591 -266 -597 -5 -8 -106 209 -272 587 l-264 600 -68 0 c-38 0 -69
-3 -69 -7z"/>
<path d="M17610 28615 l0 -685 475 0 475 0 0 65 0 65 -415 0 -415 0 2 253 3
252 373 3 372 2 0 60 0 60 -375 0 -375 0 2 243 3 242 413 3 412 2 0 60 0 60
-475 0 -475 0 0 -685z"/>
<path d="M20900 29240 l0 -60 233 -2 232 -3 3 -622 2 -623 65 0 65 0 0 625 0
625 235 0 235 0 0 60 0 60 -535 0 -535 0 0 -60z"/>
<path d="M24520 28616 l0 -686 65 0 65 0 0 255 0 255 194 0 195 0 178 -254
178 -255 78 0 78 -1 -31 44 c-16 25 -98 140 -180 257 l-151 213 58 16 c132 36
234 118 286 228 62 133 45 314 -40 427 -48 63 -144 128 -231 157 -62 20 -90
22 -404 26 l-338 4 0 -686z m608 554 c103 -13 182 -51 241 -116 130 -142 87
-354 -89 -444 -83 -43 -142 -50 -392 -50 l-238 0 0 310 0 310 203 0 c111 0
235 -5 275 -10z"/>
<path d="M27100 29240 l0 -60 238 -2 237 -3 3 -622 2 -623 60 0 60 0 2 623 3
622 238 3 237 2 0 60 0 60 -540 0 -540 0 0 -60z"/>
<path d="M28820 28615 l0 -685 475 0 475 0 0 65 0 65 -410 0 -410 0 0 255 0
255 370 0 370 0 0 60 0 60 -370 0 -370 0 0 245 0 245 410 0 410 0 0 60 0 60
-475 0 -475 0 0 -685z"/>
<path d="M30350 29295 c0 -3 115 -155 256 -339 141 -184 256 -338 256 -341 0
-4 -115 -157 -256 -340 -141 -184 -256 -336 -256 -339 0 -4 35 -6 78 -6 l79 0
217 286 c120 157 221 284 226 282 5 -2 99 -122 210 -268 111 -146 210 -273
219 -283 15 -15 31 -17 95 -15 l77 3 -260 340 c-152 199 -256 344 -252 350 40
50 499 653 505 663 5 9 -12 12 -73 12 l-80 0 -216 -282 c-119 -156 -220 -284
-224 -286 -5 -1 -106 126 -226 283 l-218 285 -79 0 c-43 0 -78 -2 -78 -5z"/>
<path d="M32110 29240 l0 -60 235 0 235 0 0 -625 0 -625 65 0 65 0 0 625 0
625 235 0 235 0 0 60 0 60 -535 0 -535 0 0 -60z"/>
<path d="M34800 28615 l0 -685 475 0 475 0 0 65 0 65 -415 0 -415 0 2 253 3
252 373 3 372 2 0 60 0 60 -375 0 -375 0 2 243 3 242 413 3 412 2 0 60 0 60
-475 0 -475 0 0 -685z"/>
<path d="M36410 28615 l0 -685 65 0 65 0 0 320 0 320 375 0 375 0 0 60 0 60
-375 0 -375 0 0 245 0 245 415 0 415 0 0 60 0 60 -480 0 -480 0 0 -685z"/>
<path d="M38000 28615 l0 -685 65 0 65 0 0 320 0 320 375 0 375 0 0 60 0 60
-375 0 -375 0 0 245 0 245 415 0 415 0 0 60 0 60 -480 0 -480 0 0 -685z"/>
<path d="M39590 28615 l0 -685 475 0 475 0 0 65 0 65 -410 0 -410 0 0 255 0
255 370 0 370 0 0 60 0 60 -370 0 -370 0 0 245 0 245 410 0 410 0 0 60 0 60
-475 0 -475 0 0 -685z"/>
<path d="M42880 29240 l0 -60 235 0 235 0 0 -625 0 -625 65 0 65 0 0 625 0
625 235 0 235 0 0 60 0 60 -535 0 -535 0 0 -60z"/>
<path d="M13700 25874 c-368 -26 -685 -87 -1020 -196 -634 -206 -1247 -532
-1837 -974 -1093 -821 -2101 -2019 -3030 -3604 -183 -312 -472 -845 -598
-1105 -144 -298 -225 -467 -225 -470 0 -2 -21 -47 -46 -102 -162 -344 -456
-1047 -584 -1393 -15 -41 -60 -163 -100 -270 -379 -1021 -679 -2096 -859
-3075 -319 -1736 -331 -3248 -35 -4404 178 -696 436 -1232 826 -1713 92 -114
1245 -1281 1468 -1486 375 -345 801 -568 1322 -691 357 -85 817 -128 1283
-118 537 12 965 78 1495 233 1091 320 2377 1105 3477 2122 69 64 144 132 165
150 l38 34 124 -119 c203 -196 370 -313 631 -439 239 -116 474 -186 719 -215
141 -17 390 -7 488 19 303 81 530 266 649 528 17 37 57 171 90 298 173 666
342 1185 564 1731 273 673 584 1256 1028 1928 l170 258 236 -233 c130 -129
261 -251 292 -272 l57 -38 7 -96 c36 -512 192 -951 462 -1302 67 -86 1201
-1233 1389 -1404 570 -518 1269 -882 1904 -990 323 -55 608 -38 883 54 362
121 1027 562 1711 1134 l46 39 163 -159 c90 -88 206 -190 260 -229 374 -270
789 -454 1212 -540 474 -96 876 -30 1215 198 132 89 691 664 1040 1069 l135
157 355 -352 c195 -195 382 -376 415 -404 574 -481 1214 -642 1891 -477 18 5
23 -1 34 -43 30 -112 148 -410 224 -568 126 -260 251 -458 407 -640 111 -131
1415 -1425 1529 -1517 527 -428 977 -613 1562 -644 468 -25 927 134 1214 420
73 72 99 107 128 168 89 187 88 388 -5 578 -41 83 -50 94 -484 530 l-443 445
-11 70 c-5 39 -16 170 -22 291 -22 378 13 934 97 1564 26 200 104 682 110 689
3 3 188 -177 412 -400 447 -445 522 -508 762 -641 377 -209 915 -331 1319
-299 379 31 668 146 1010 404 l104 78 381 -379 c210 -208 408 -399 442 -424
340 -258 755 -429 1204 -497 585 -88 1117 -29 1507 168 289 145 686 505 1078
976 212 254 567 739 815 1110 51 77 95 142 97 144 2 3 259 -250 571 -560 581
-579 693 -680 967 -875 632 -449 1403 -713 1943 -665 389 35 642 146 1222 534
965 648 2024 1667 2775 2672 591 791 1039 1599 1320 2380 24 66 55 147 68 180
84 201 93 428 27 627 -77 229 -104 263 -642 804 l-469 470 27 140 c36 190 45
464 19 615 -21 125 -69 279 -120 380 -96 189 -109 204 -819 917 -369 371 -707
702 -751 736 -95 73 -158 115 -280 186 -49 29 -189 114 -310 188 -446 275
-596 352 -865 443 -256 87 -422 115 -680 112 -251 -2 -484 -55 -740 -169 -508
-225 -1189 -845 -1791 -1630 l-108 -141 -683 682 c-423 422 -721 713 -784 762
-502 396 -1062 567 -1569 478 -49 -9 -148 -36 -220 -61 -71 -25 -137 -47 -146
-50 -10 -4 -27 13 -54 53 -123 188 -186 256 -839 911 -364 365 -700 697 -749
738 -106 89 -233 176 -374 254 l-106 59 -51 93 c-139 250 -165 279 -885 1001
-627 630 -741 737 -876 823 -33 21 -87 61 -120 89 -221 187 -591 402 -843 489
-277 96 -563 94 -828 -6 -158 -59 -235 -110 -378 -248 -300 -291 -566 -629
-1026 -1307 l-164 -243 -266 0 c-625 0 -1448 -41 -2130 -106 -1854 -175 -3640
-578 -5295 -1194 -204 -76 -335 -161 -484 -313 -149 -152 -240 -329 -276 -536
-27 -155 -18 -287 35 -507 70 -288 205 -526 463 -819 53 -60 97 -112 97 -115
0 -3 -28 -12 -62 -19 -222 -45 -526 -183 -788 -355 -151 -99 -223 -160 -443
-375 l-168 -164 -492 489 c-337 335 -517 507 -572 546 -44 31 -206 132 -360
225 -154 94 -345 210 -425 258 -161 99 -395 215 -541 269 -540 199 -1008 189
-1507 -33 -624 -278 -1469 -1121 -2162 -2154 l-112 -169 -347 344 c-280 279
-364 356 -440 407 -112 74 -212 126 -334 172 -56 21 -92 40 -99 53 -42 82
-179 228 -717 769 -333 335 -644 641 -691 681 -170 143 -375 261 -625 359
-248 98 -382 122 -633 114 -183 -5 -285 -26 -431 -86 -41 -17 -76 -29 -78 -28
-1 2 6 73 16 158 37 301 59 629 68 1019 15 666 -67 1280 -239 1794 -124 372
-267 630 -490 883 -122 138 -1257 1267 -1348 1340 -116 94 -267 188 -405 254
-282 135 -757 258 -1150 299 -108 11 -495 20 -585 14z m600 -649 c363 -48 736
-157 953 -279 168 -94 347 -262 463 -437 205 -307 355 -811 416 -1399 17 -166
18 -961 0 -1160 -60 -698 -155 -1276 -344 -2080 -314 -1345 -772 -2693 -1343
-3955 -220 -485 -610 -1236 -694 -1337 -41 -49 -92 -81 -173 -110 -56 -20 -81
-22 -233 -22 -192 1 -299 18 -484 80 -136 45 -334 148 -441 228 -157 118 -294
278 -363 424 -29 61 -32 76 -32 167 0 127 30 213 115 335 247 352 343 518 620
1075 821 1653 1496 3547 1729 4850 77 431 96 627 96 990 0 323 -10 422 -60
623 -71 284 -239 464 -481 518 -109 24 -277 15 -399 -20 -201 -59 -451 -207
-683 -404 -243 -206 -624 -618 -894 -964 -1348 -1735 -2768 -4736 -3512 -7425
-538 -1942 -627 -3381 -270 -4313 229 -594 598 -879 1218 -939 451 -44 921 44
1441 269 977 425 2049 1235 3074 2325 567 602 1040 1153 1524 1777 l68 87 103
298 c389 1121 811 2142 1324 3198 374 771 885 1715 996 1842 62 70 162 119
271 134 137 19 263 -3 440 -74 373 -150 594 -341 645 -556 16 -67 8 -176 -19
-251 -28 -82 -231 -513 -549 -1165 -211 -435 -349 -735 -506 -1103 -150 -352
-150 -352 -130 -327 28 35 328 466 411 590 44 66 129 187 187 270 110 153 228
337 401 620 172 282 272 409 364 463 38 22 56 26 116 25 90 -2 141 -18 525
-168 173 -67 410 -157 525 -200 262 -97 350 -142 435 -222 156 -147 180 -282
127 -713 -15 -118 -38 -327 -52 -465 -14 -137 -34 -326 -45 -420 -52 -447 -70
-899 -51 -1265 19 -372 35 -478 86 -566 21 -36 107 -114 126 -114 4 0 17 33
28 73 285 969 832 2116 1462 3062 329 494 636 878 994 1244 277 282 478 453
719 613 336 223 649 292 991 218 245 -54 463 -155 865 -402 157 -96 344 -209
416 -252 72 -43 167 -108 212 -146 310 -264 362 -541 213 -1120 -117 -454
-273 -878 -489 -1332 -330 -690 -819 -1363 -1227 -1688 -376 -299 -758 -430
-1214 -418 -119 4 -196 11 -271 27 -119 26 -361 104 -463 150 l-68 31 -30 -66
c-76 -170 -187 -501 -254 -759 -116 -444 -180 -956 -156 -1254 21 -260 99
-361 291 -377 297 -24 785 241 1420 773 579 485 1213 1162 1816 1939 307 396
542 736 649 939 501 953 1176 1853 1874 2503 236 220 502 373 774 448 114 31
313 43 409 25 343 -66 699 -227 1070 -484 201 -138 491 -328 498 -325 4 2 36
39 71 83 35 43 116 133 179 200 117 122 205 226 275 325 67 94 167 209 314
362 123 127 153 153 214 183 237 115 602 35 973 -214 390 -261 558 -539 489
-806 -10 -38 -58 -135 -129 -260 -628 -1108 -1102 -2058 -1398 -2800 -220
-551 -406 -1244 -426 -1589 -13 -209 9 -330 69 -381 53 -44 164 -24 334 60
252 125 491 353 795 760 397 531 755 1075 1245 1895 153 256 244 424 480 895
304 605 422 858 520 1110 216 560 969 2232 1346 2987 24 48 40 90 36 94 -7 8
-600 -11 -847 -26 -1317 -83 -2519 -346 -3540 -775 -484 -202 -919 -432 -1325
-700 -94 -61 -186 -117 -204 -123 -89 -31 -254 -2 -406 72 -172 84 -442 307
-593 490 -36 45 -99 116 -139 159 -134 144 -236 319 -290 494 -21 71 -27 109
-27 198 -1 103 1 114 28 164 35 67 121 159 192 206 110 73 937 355 1574 536
1857 529 3800 789 5897 789 l481 0 109 165 c152 233 396 592 526 775 314 441
644 818 771 880 128 63 269 73 409 30 191 -59 490 -234 694 -407 45 -37 121
-93 169 -123 161 -101 332 -296 427 -489 38 -77 42 -91 42 -160 0 -107 -32
-169 -139 -269 -214 -201 -549 -555 -535 -566 2 -1 83 -12 179 -25 643 -83
1338 -236 1769 -390 305 -109 571 -315 775 -601 155 -217 331 -609 421 -936
65 -238 103 -545 92 -754 -17 -314 -126 -475 -339 -503 l-48 -7 0 93 c0 160
-40 288 -136 433 -136 206 -404 406 -766 571 -152 69 -380 165 -383 161 -1 -2
-15 -28 -32 -58 -304 -549 -868 -1536 -912 -1596 -37 -51 -136 -119 -205 -139
-320 -97 -810 36 -1053 287 -123 127 -128 197 -42 581 75 335 239 826 401
1205 38 90 67 166 65 169 -9 8 -295 49 -537 78 -118 13 -232 27 -252 30 l-36
5 -160 -268 c-1032 -1727 -1805 -3495 -2501 -5722 -405 -1296 -677 -2487 -805
-3515 -156 -1257 -113 -2042 139 -2550 162 -325 415 -523 747 -585 l67 -12
-41 -34 c-230 -193 -577 -255 -998 -178 -316 58 -645 238 -995 545 -152 133
-255 251 -367 419 -254 381 -477 1020 -509 1458 -15 213 -7 845 15 1082 39
426 118 954 210 1415 25 121 43 221 41 223 -1 2 -29 -28 -61 -65 -57 -65 -148
-158 -251 -253 -26 -25 -132 -137 -234 -250 -419 -461 -829 -833 -1149 -1042
-162 -107 -222 -135 -353 -168 -531 -134 -1029 26 -1463 472 -165 169 -260
324 -321 523 -26 87 -27 98 -28 310 0 242 10 324 70 590 19 83 43 204 55 270
11 66 32 172 46 235 26 114 138 513 169 600 19 54 21 56 -96 -100 -51 -69
-210 -273 -353 -455 -143 -181 -314 -409 -380 -505 -438 -642 -889 -1182
-1496 -1791 -260 -262 -293 -286 -455 -335 -81 -24 -106 -27 -245 -28 -131 0
-175 4 -280 27 -312 66 -590 183 -866 365 -341 224 -533 484 -559 758 -6 63
16 324 32 379 3 11 -97 -81 -223 -205 -586 -576 -1169 -1038 -1754 -1390 -250
-151 -363 -196 -555 -221 -311 -40 -786 88 -1236 336 -282 155 -692 465 -836
634 -198 231 -313 495 -370 847 -25 157 -25 705 0 919 19 158 68 462 90 555
l13 55 -200 0 c-289 1 -540 44 -846 145 -299 98 -504 203 -616 314 -71 71 -94
117 -127 246 -61 236 -62 252 -59 785 2 270 0 533 -3 585 l-7 95 -45 -50
c-487 -548 -868 -1038 -1241 -1597 -493 -739 -855 -1421 -1156 -2180 -209
-528 -370 -1025 -541 -1672 -36 -137 -75 -264 -86 -282 -35 -57 -98 -103 -172
-126 -98 -29 -324 -22 -477 17 -396 99 -799 366 -907 601 -51 111 -42 197 82
821 l42 216 -61 -69 c-456 -515 -1051 -1101 -1511 -1491 -629 -531 -1235 -938
-1884 -1263 -679 -339 -1220 -507 -1896 -587 -234 -28 -844 -25 -1095 5 -440
52 -673 114 -965 257 -231 112 -407 240 -609 441 -350 350 -604 778 -786 1322
-153 457 -239 933 -281 1542 -16 225 -16 899 0 1145 68 1096 273 2255 596
3375 457 1584 1157 3241 1936 4588 494 852 1058 1646 1627 2287 158 177 627
645 792 790 679 593 1328 987 2030 1232 319 111 579 168 910 197 101 9 491 -3
610 -19z m-714 -4676 c-305 -1031 -777 -2247 -1286 -3310 -262 -546 -485 -944
-641 -1144 -150 -193 -235 -397 -260 -627 -22 -212 15 -411 116 -613 101 -203
164 -275 814 -928 614 -617 744 -740 884 -840 103 -74 265 -166 379 -215 48
-20 88 -40 88 -43 0 -3 -98 -109 -219 -235 -671 -703 -1408 -1313 -2061 -1706
-389 -234 -761 -412 -1035 -497 -157 -48 -462 -105 -485 -91 -7 4 -17 47 -23
96 -15 126 -14 728 1 909 73 868 270 1787 636 2966 612 1975 1622 4182 2614
5711 177 275 521 762 530 754 1 -2 -22 -86 -52 -187z m32324 -1382 c278 -74
542 -230 779 -461 255 -249 440 -530 584 -886 233 -574 274 -1069 137 -1635
-84 -349 -353 -1050 -640 -1670 -121 -260 -426 -863 -570 -1125 -553 -1008
-1175 -1949 -1729 -2615 -157 -189 -482 -514 -624 -624 -141 -109 -233 -161
-365 -204 -178 -59 -273 -71 -552 -72 -256 0 -329 7 -547 50 -422 85 -821 312
-993 565 -125 184 -163 378 -163 825 1 322 34 738 92 1160 11 77 19 141 18
142 -2 1 -70 -89 -152 -199 -549 -741 -1026 -1251 -1389 -1490 -122 -80 -255
-144 -351 -169 -428 -108 -1026 34 -1408 335 -265 208 -405 439 -423 696 -20
283 116 1052 315 1777 223 813 604 1879 948 2658 138 310 379 775 490 943 41
61 100 105 181 134 82 30 315 36 470 14 263 -39 534 -150 742 -304 106 -78
210 -187 245 -258 26 -52 30 -70 30 -145 l0 -87 -272 -538 c-640 -1271 -968
-2042 -1167 -2749 -97 -345 -130 -542 -124 -745 3 -127 5 -139 33 -195 71
-143 176 -139 389 13 93 66 323 291 452 442 385 448 910 1193 1390 1971 l103
167 56 198 c212 750 396 1284 555 1609 160 328 267 411 525 409 358 -3 817
-196 1076 -454 89 -88 127 -149 136 -219 4 -30 -3 -57 -31 -122 -128 -291
-252 -642 -431 -1219 -388 -1255 -730 -2654 -820 -3355 -20 -157 -32 -425 -18
-425 36 0 186 145 358 345 632 737 1340 1845 1908 2985 323 647 531 1196 681
1795 175 703 191 1423 41 1881 -92 282 -263 533 -500 738 -38 33 -70 64 -70
69 0 12 88 44 175 62 102 22 311 13 430 -18z m5440 -1 c248 -57 449 -151 850
-397 157 -96 344 -210 415 -252 277 -164 426 -334 486 -552 40 -146 26 -361
-42 -644 -176 -737 -529 -1551 -942 -2171 -261 -391 -551 -728 -792 -920 -379
-301 -760 -431 -1220 -417 -234 7 -425 52 -689 161 l-108 44 -29 -65 c-135
-301 -285 -818 -353 -1218 -66 -384 -79 -804 -31 -962 54 -178 201 -244 436
-195 185 38 399 140 664 317 778 518 1669 1414 2512 2525 401 528 717 1027
995 1570 47 94 84 123 165 136 114 17 310 -63 418 -171 129 -129 157 -245 97
-400 -17 -44 -54 -142 -82 -218 -266 -722 -680 -1461 -1229 -2192 -633 -844
-1521 -1724 -2348 -2328 -273 -200 -647 -437 -808 -513 -221 -104 -434 -126
-722 -74 -474 85 -996 352 -1466 748 -350 295 -510 584 -584 1052 -25 162 -25
699 0 910 50 411 130 782 267 1224 354 1141 1060 2500 1798 3461 228 296 386
479 632 728 265 271 471 446 705 599 189 124 364 198 550 233 115 21 319 13
455 -19z m-15839 -1190 l-96 -225 -158 157 -158 157 58 18 c93 29 416 116 434
116 12 1 -7 -53 -80 -223z m9769 -1119 c-27 -142 -88 -398 -99 -416 -7 -10
-42 20 -143 121 l-134 136 71 35 c92 46 175 108 255 193 36 38 66 63 68 56 2
-6 -6 -63 -18 -125z"/>
<path d="M25649 17486 c-336 -279 -995 -1177 -1466 -1999 -173 -302 -283 -531
-283 -590 0 -22 5 -25 63 -30 116 -11 273 21 387 78 89 45 197 131 310 245
441 446 793 1146 986 1958 27 114 76 383 71 389 -2 1 -32 -21 -68 -51z"/>
<path d="M30594 16846 c-130 -41 -249 -135 -411 -324 -613 -715 -1109 -1479
-1522 -2348 -270 -566 -429 -968 -511 -1289 -39 -151 -66 -303 -58 -326 10
-29 449 406 729 721 599 675 1083 1282 1665 2090 326 452 433 605 448 642 53
127 59 349 12 488 -76 228 -113 288 -207 335 -54 28 -84 30 -145 11z"/>
<path d="M51449 17486 c-178 -148 -453 -476 -767 -913 -452 -631 -948 -1474
-978 -1663 l-6 -37 63 -6 c167 -15 372 47 514 156 408 313 806 947 1036 1651
59 178 120 399 154 557 27 127 56 301 52 306 -2 1 -32 -21 -68 -51z"/>
<path d="M35923 2880 c-135 -25 -238 -89 -288 -181 -24 -45 -30 -68 -33 -140
-4 -72 -1 -93 18 -137 43 -100 126 -147 369 -212 239 -63 286 -92 286 -175 0
-37 -6 -50 -35 -80 -50 -52 -117 -69 -244 -63 -115 6 -198 30 -290 84 -32 19
-60 33 -62 31 -2 -1 -19 -39 -39 -82 l-36 -79 23 -18 c81 -63 233 -107 393
-115 300 -13 482 100 502 311 9 95 -16 166 -77 226 -59 57 -124 85 -320 135
-227 58 -287 98 -277 183 18 163 314 192 558 55 9 -5 70 157 63 168 -10 17
-80 48 -155 69 -85 24 -273 35 -356 20z"/>
<path d="M37215 2883 c-118 -16 -255 -83 -340 -168 -174 -174 -216 -461 -102
-694 45 -93 149 -195 247 -243 185 -90 419 -91 595 -3 66 32 165 107 165 124
0 5 -31 36 -70 70 l-70 62 -42 -33 c-102 -81 -166 -102 -292 -96 -77 3 -101 9
-157 36 -238 114 -300 436 -123 632 144 159 400 174 571 34 l43 -36 70 62 c44
39 67 66 63 76 -9 23 -102 93 -167 123 -104 50 -261 71 -391 54z"/>
<path d="M14970 2300 l0 -570 105 0 105 0 2 218 3 217 273 3 272 2 0 90 0 90
-275 0 -275 0 0 170 0 170 315 0 315 0 0 90 0 90 -420 0 -420 0 0 -570z"/>
<path d="M16090 2518 c1 -259 4 -374 15 -432 43 -242 217 -376 490 -376 255 0
417 112 482 333 13 42 17 126 20 440 l5 387 -106 0 -105 0 -3 -367 c-5 -424
-7 -441 -85 -524 -60 -64 -116 -83 -227 -77 -124 7 -190 50 -238 153 -23 49
-23 57 -26 433 l-3 382 -109 0 -110 0 0 -352z"/>
<path d="M17490 2300 l0 -570 405 0 405 0 0 90 0 90 -300 0 -300 0 0 480 0
480 -105 0 -105 0 0 -570z"/>
<path d="M18560 2300 l0 -570 405 0 405 0 0 90 0 90 -300 0 -300 0 0 480 0
480 -105 0 -105 0 0 -570z"/>
<path d="M19358 2838 c11 -18 113 -186 226 -373 l206 -340 0 -197 0 -198 105
0 105 0 0 195 0 194 225 372 c124 204 225 373 225 375 0 3 -48 3 -107 2 l-107
-3 -143 -235 c-79 -129 -154 -252 -166 -273 l-23 -39 -165 276 -164 275 -118
1 -119 0 20 -32z"/>
<path d="M21230 2300 l0 -570 430 0 430 0 0 85 0 85 -325 0 -325 0 0 160 0
160 275 0 275 0 0 90 0 90 -275 0 -275 0 0 145 0 145 310 0 310 0 0 90 0 90
-415 0 -415 0 0 -570z"/>
<path d="M22410 2300 l0 -570 313 0 c280 0 322 2 391 20 267 68 426 273 426
550 0 283 -169 492 -447 554 -57 13 -134 16 -377 16 l-306 0 0 -570z m673 361
c171 -68 267 -241 237 -428 -21 -132 -94 -228 -219 -287 l-66 -31 -202 -3
-203 -4 0 392 0 392 198 -4 c178 -3 203 -6 255 -27z"/>
<path d="M23860 2300 l0 -570 105 0 105 0 0 570 0 570 -105 0 -105 0 0 -570z"/>
<path d="M24320 2780 l0 -90 190 0 190 0 0 -480 0 -480 110 0 110 0 0 480 0
480 190 0 190 0 0 90 0 90 -490 0 -490 0 0 -90z"/>
<path d="M25821 2828 c-10 -24 -123 -275 -251 -558 -128 -283 -234 -521 -237
-528 -4 -10 19 -12 107 -10 l113 3 55 128 54 127 286 -2 286 -3 55 -127 55
-128 113 0 113 0 -13 33 c-8 17 -123 274 -257 570 l-243 537 -109 0 -109 0
-18 -42z m235 -425 l103 -238 -206 -3 c-113 -1 -208 -1 -210 2 -2 2 42 112 98
245 57 132 105 238 108 236 2 -3 50 -112 107 -242z"/>
<path d="M26810 2301 l0 -571 348 0 c271 0 361 4 410 15 169 40 253 132 256
280 0 39 -5 91 -13 118 -17 58 -74 125 -134 157 l-45 24 31 23 c143 105 137
355 -10 452 -93 62 -113 65 -495 69 l-348 3 0 -570z m640 382 c67 -31 93 -63
97 -125 5 -66 -18 -108 -79 -140 -40 -21 -58 -23 -245 -26 l-203 -4 0 154 c0
85 3 158 8 162 4 5 90 6 192 4 160 -4 191 -7 230 -25z m79 -493 c52 -30 81
-78 81 -136 0 -56 -33 -103 -95 -134 -49 -24 -55 -25 -270 -25 l-220 0 -3 163
-3 163 233 -3 c227 -3 234 -4 277 -28z"/>
<path d="M28140 2300 l0 -570 410 0 410 0 0 90 0 90 -300 0 -300 0 0 480 0
480 -110 0 -110 0 0 -570z"/>
<path d="M29220 2300 l0 -570 430 0 430 0 0 85 0 85 -325 0 -325 0 0 160 0
160 275 0 275 0 0 90 0 90 -275 0 -275 0 0 145 0 145 310 0 310 0 0 90 0 90
-415 0 -415 0 0 -570z"/>
<path d="M31291 2853 c-17 -32 -501 -1112 -501 -1118 0 -3 50 -4 111 -3 l110
3 53 125 53 125 287 0 288 0 55 -127 56 -128 113 0 113 0 -32 73 c-19 39 -134
296 -258 570 l-224 497 -107 0 c-92 0 -109 -2 -117 -17z m223 -451 l104 -242
-213 0 -213 0 105 245 c58 135 107 244 109 242 2 -2 50 -112 108 -245z"/>
<path d="M32270 2300 l0 -570 105 0 105 0 2 379 3 378 308 -378 308 -379 90 0
89 0 0 570 0 570 -105 0 -105 0 -2 -380 -3 -379 -309 379 -309 380 -88 0 -89
0 0 -570z"/>
<path d="M33680 2300 l0 -570 313 0 c349 0 402 7 525 69 277 140 376 508 215
802 -39 72 -139 161 -225 203 -126 59 -179 66 -522 66 l-306 0 0 -570z m642
370 c35 -11 85 -33 111 -51 155 -102 206 -324 117 -505 -37 -75 -91 -126 -179
-168 l-66 -31 -202 -3 -203 -4 0 391 0 391 179 0 c150 0 189 -3 243 -20z"/>
<path d="M38386 2843 c-23 -47 -496 -1100 -496 -1107 0 -3 49 -6 109 -6 l109
0 54 128 55 127 287 0 287 0 56 -127 56 -128 113 0 113 0 -32 73 c-19 39 -134
296 -258 569 l-224 498 -107 0 c-107 0 -108 0 -122 -27z m227 -440 l105 -243
-213 0 -213 0 105 245 c58 135 107 244 108 243 2 -2 51 -112 108 -245z"/>
<path d="M39360 2300 l0 -570 410 0 410 0 0 90 0 90 -300 0 -300 0 0 480 0
480 -110 0 -110 0 0 -570z"/>
<path d="M40539 2300 l-257 -570 113 0 113 0 53 130 54 130 286 0 287 0 54
-127 55 -128 112 -3 c61 -1 111 1 111 5 0 5 -114 260 -253 568 l-252 560 -110
3 -110 2 -256 -570z m471 107 c56 -132 100 -241 97 -243 -2 -3 -96 -3 -209 -2
l-205 3 88 205 c48 113 95 223 103 244 9 22 18 38 20 35 2 -2 50 -111 106
-242z"/>
<path d="M41760 2299 l0 -570 378 3 c354 4 380 5 433 25 146 55 209 138 209
277 0 122 -45 206 -136 258 l-55 31 35 29 c61 50 89 109 94 199 8 134 -43 221
-157 273 -92 41 -143 46 -482 46 l-319 0 0 -571z m633 392 c20 -7 53 -27 71
-46 58 -57 59 -128 4 -191 -47 -53 -100 -64 -310 -64 l-178 0 0 161 0 161 188
-5 c103 -3 204 -10 225 -16z m58 -486 c57 -20 97 -59 110 -108 20 -75 -18
-143 -101 -181 -40 -18 -69 -21 -262 -24 l-218 -4 0 166 0 166 214 0 c167 0
223 -3 257 -15z"/>
<path d="M43100 2300 l0 -570 405 0 405 0 0 90 0 90 -300 0 -300 0 0 480 0
480 -105 0 -105 0 0 -570z"/>
<path d="M44170 2300 l0 -570 430 0 430 0 0 85 0 85 -322 2 -323 3 -3 158 -3
157 281 0 280 0 0 90 0 90 -280 0 -280 0 0 145 0 145 315 0 315 0 0 90 0 90
-420 0 -420 0 0 -570z"/>
<path d="M28156 1524 c-36 -36 -9 -94 44 -94 16 0 36 7 44 16 19 18 21 65 4
82 -17 17 -74 15 -92 -4z"/>
<path d="M39293 1514 c-15 -24 -15 -29 -2 -53 10 -18 24 -27 47 -29 43 -4 62
12 62 52 0 41 -16 56 -57 56 -24 0 -37 -7 -50 -26z"/>
<path d="M21970 1405 c0 -115 -7 -145 -26 -114 -14 24 -90 49 -149 49 -107 0
-193 -57 -224 -149 -17 -53 -13 -160 8 -206 60 -131 231 -174 355 -90 l36 24
0 -29 c0 -28 2 -30 40 -30 l40 0 0 335 0 335 -40 0 -40 0 0 -125z m-71 -173
c92 -69 85 -220 -14 -277 -154 -91 -316 107 -204 249 51 65 151 78 218 28z"/>
<path d="M23192 1510 c-39 -24 -62 -73 -62 -130 l0 -40 -40 0 c-39 0 -40 -1
-40 -35 0 -34 1 -35 40 -35 l40 0 0 -205 0 -205 45 0 45 0 0 205 0 205 65 0
65 0 0 35 0 35 -70 0 c-77 0 -77 0 -60 62 15 54 56 69 129 47 8 -2 19 9 27 29
14 31 13 33 -12 42 -45 17 -136 12 -172 -10z"/>
<path d="M27210 1405 l0 -125 -40 26 c-52 35 -146 43 -217 20 -118 -39 -178
-174 -139 -310 44 -152 248 -219 366 -120 l30 26 0 -31 c0 -30 1 -31 45 -31
l45 0 0 335 0 335 -45 0 -45 0 0 -125z m-69 -168 c14 -9 36 -35 48 -58 19 -33
22 -51 19 -95 -8 -95 -65 -149 -158 -149 -69 0 -103 20 -137 81 -85 147 87
313 228 221z"/>
<path d="M32040 1195 l0 -335 40 0 c38 0 40 2 40 31 l0 30 33 -25 c90 -68 239
-54 319 31 40 42 58 94 58 171 0 135 -81 230 -205 240 -72 6 -115 -3 -159 -33
-20 -14 -39 -25 -41 -25 -3 0 -5 56 -5 125 l0 125 -40 0 -40 0 0 -335z m334
42 c40 -27 67 -81 68 -135 1 -167 -200 -236 -290 -99 -48 72 -30 178 39 229
51 38 129 40 183 5z"/>
<path d="M33960 1195 l0 -335 45 0 45 0 0 153 c0 167 6 188 66 228 45 29 124
26 163 -7 42 -35 51 -77 51 -236 l0 -138 40 0 40 0 0 173 c0 159 -2 176 -22
217 -46 88 -178 119 -284 65 -27 -14 -50 -25 -51 -25 -2 0 -3 54 -3 120 l0
120 -45 0 -45 0 0 -335z"/>
<path d="M37270 1403 c0 -120 -1 -125 -18 -110 -78 71 -254 58 -329 -24 -62
-68 -76 -205 -30 -296 61 -119 222 -158 341 -83 l46 30 0 -30 c0 -28 2 -30 40
-30 l40 0 0 335 0 335 -45 0 -45 0 0 -127z m-62 -170 c63 -47 83 -159 39 -224
-89 -133 -272 -88 -293 71 -6 53 24 121 67 153 53 39 135 38 187 0z"/>
<path d="M39550 1195 l0 -335 45 0 45 0 0 335 0 335 -45 0 -45 0 0 -335z"/>
<path d="M19650 1483 c0 -4 46 -146 102 -315 l103 -308 51 0 52 0 83 245 c45
135 85 243 87 240 3 -3 42 -112 86 -242 l81 -238 51 -3 51 -3 106 316 106 316
-46 -3 -45 -3 -84 -244 c-46 -134 -85 -246 -87 -248 -2 -2 -42 108 -88 244
l-85 248 -44 3 -45 3 -84 -246 c-46 -135 -86 -245 -90 -245 -3 0 -43 109 -87
243 l-80 242 -47 3 c-26 2 -47 0 -47 -5z"/>
<path d="M24630 1390 l0 -50 -40 0 c-39 0 -40 -1 -40 -35 0 -34 1 -35 40 -35
l40 0 0 -155 c0 -188 8 -216 72 -245 49 -22 86 -25 140 -10 48 14 52 22 33 60
-13 25 -19 29 -35 20 -31 -16 -78 -12 -100 10 -18 18 -20 33 -20 170 l0 150
65 0 65 0 0 35 0 35 -65 0 -65 0 0 50 0 50 -45 0 -45 0 0 -50z"/>
<path d="M20790 1331 c-145 -44 -211 -212 -139 -353 83 -162 343 -170 434 -13
33 56 43 145 24 212 -17 61 -87 133 -145 151 -45 13 -135 15 -174 3z m174 -96
c64 -42 87 -161 43 -226 -38 -57 -84 -81 -144 -77 -67 6 -115 41 -138 103 -59
153 103 289 239 200z"/>
<path d="M21240 1100 l0 -240 45 0 45 0 0 140 c0 157 9 194 57 228 17 12 49
24 72 28 40 6 41 8 41 45 0 37 -2 39 -30 39 -38 0 -98 -24 -127 -52 l-23 -21
0 36 c0 36 -1 37 -40 37 l-40 0 0 -240z"/>
<path d="M22278 1331 c-76 -25 -118 -90 -104 -163 11 -62 55 -89 173 -109 38
-6 80 -18 96 -26 48 -24 30 -84 -30 -99 -41 -11 -137 2 -181 25 l-41 21 -16
-31 c-9 -17 -14 -37 -11 -44 9 -25 107 -50 196 -50 133 1 200 48 200 139 0 80
-32 105 -171 136 -104 22 -135 43 -126 82 4 13 19 31 33 39 36 19 131 16 172
-5 37 -19 46 -16 67 25 l16 30 -38 16 c-43 18 -193 27 -235 14z"/>
<path d="M23539 1326 c-97 -35 -151 -114 -151 -225 -1 -75 19 -131 60 -174 93
-98 270 -100 365 -4 93 92 91 263 -3 354 -59 58 -184 80 -271 49z m187 -91
c66 -43 87 -158 41 -226 -89 -133 -272 -88 -293 71 -6 53 24 121 67 153 52 38
129 39 185 2z"/>
<path d="M24000 1100 l0 -240 45 0 45 0 0 143 c0 161 10 195 69 234 40 27 107
31 150 8 51 -26 61 -66 61 -234 l0 -151 45 0 45 0 0 153 c0 219 -20 273 -112
312 -72 29 -189 14 -240 -32 -17 -15 -18 -14 -18 15 0 31 -1 32 -45 32 l-45 0
0 -240z"/>
<path d="M25045 1325 c-63 -22 -95 -65 -95 -126 0 -89 23 -108 173 -140 127
-28 159 -63 100 -109 -45 -35 -169 -22 -254 27 -4 3 -39 -60 -39 -71 0 -2 24
-14 53 -27 72 -31 213 -33 271 -4 58 29 81 66 80 127 -1 68 -34 99 -125 117
-112 23 -140 32 -160 52 -25 25 -24 35 5 64 41 41 120 41 218 0 12 -5 21 2 33
24 9 18 13 36 10 41 -11 17 -108 40 -169 40 -34 -1 -79 -7 -101 -15z"/>
<path d="M25752 1326 c-23 -8 -54 -21 -67 -30 l-24 -16 20 -34 20 -35 35 21
c50 30 108 40 154 28 47 -13 90 -61 90 -101 l0 -29 -107 0 c-133 0 -185 -19
-208 -74 -40 -96 6 -178 114 -201 51 -11 136 4 176 30 l35 24 0 -24 c0 -23 4
-25 41 -25 l41 0 -4 178 c-3 201 -13 235 -76 274 -45 27 -175 35 -240 14z
m228 -290 c0 -84 -117 -144 -199 -101 -60 30 -54 105 9 128 8 3 54 6 103 6
l87 1 0 -34z"/>
<path d="M26230 1100 l0 -240 39 0 39 0 4 148 c3 114 8 154 22 180 24 47 70
72 133 72 43 0 58 -5 83 -27 41 -37 49 -79 50 -240 l0 -133 40 0 40 0 0 173
c0 162 -2 177 -23 217 -52 99 -212 122 -319 48 l-28 -19 0 30 c0 29 -2 31 -40
31 l-40 0 0 -240z"/>
<path d="M27757 1326 c-67 -24 -97 -66 -97 -135 0 -76 60 -117 203 -137 53 -7
97 -36 97 -64 0 -10 -12 -28 -27 -40 -24 -19 -37 -22 -99 -18 -47 3 -86 12
-113 26 l-41 22 -19 -39 -20 -38 33 -15 c126 -60 320 -37 361 43 22 41 19 101
-6 133 -29 36 -45 44 -149 65 -50 10 -100 27 -110 36 -28 26 -25 61 7 82 36
24 135 23 181 -1 38 -20 45 -17 62 25 16 37 9 43 -63 59 -65 14 -154 12 -200
-4z"/>
<path d="M28160 1100 l0 -240 40 0 40 0 0 240 0 240 -40 0 -40 0 0 -240z"/>
<path d="M28370 1305 l0 -34 136 -3 136 -3 -141 -176 c-101 -126 -141 -184
-141 -203 l0 -26 205 0 205 0 0 35 0 35 -145 0 -146 0 141 173 c114 142 140
180 140 205 l0 32 -195 0 -195 0 0 -35z"/>
<path d="M28977 1326 c-99 -36 -154 -131 -145 -250 12 -145 101 -221 258 -221
57 1 86 6 122 23 70 35 77 47 43 82 -29 30 -29 30 -49 11 -44 -41 -128 -53
-189 -27 -41 17 -84 63 -92 99 l-7 27 197 0 198 0 -7 53 c-19 142 -103 218
-241 217 -27 -1 -67 -7 -88 -14z m146 -70 c41 -17 84 -63 92 -98 l7 -28 -152
0 -152 0 7 28 c13 53 87 111 143 112 12 0 37 -6 55 -14z"/>
<path d="M29488 1331 c-76 -25 -118 -90 -104 -163 11 -62 55 -89 173 -109 38
-6 80 -18 96 -26 48 -24 30 -84 -30 -99 -41 -11 -137 2 -181 25 l-41 21 -16
-31 c-9 -17 -14 -37 -11 -44 9 -25 107 -50 196 -50 133 1 200 48 200 139 0 80
-32 105 -171 136 -104 22 -135 43 -126 82 4 13 19 31 33 39 36 19 131 16 172
-5 37 -19 46 -16 67 25 l16 30 -38 16 c-43 18 -193 27 -235 14z"/>
<path d="M30215 1316 c-60 -27 -110 -81 -124 -133 -30 -108 3 -227 79 -282 93
-67 242 -64 323 8 39 33 39 48 3 69 l-34 20 -19 -20 c-45 -51 -138 -63 -194
-25 -75 50 -101 143 -63 223 43 91 173 116 245 48 31 -30 37 -30 72 -1 l28 22
-27 29 c-64 68 -193 87 -289 42z"/>
<path d="M30702 1326 c-23 -8 -54 -21 -67 -30 l-24 -16 20 -34 20 -34 45 25
c107 60 234 16 234 -82 l0 -25 -107 0 c-133 0 -185 -19 -208 -74 -40 -96 6
-178 114 -201 51 -11 136 4 176 30 l35 24 0 -24 c0 -23 4 -25 41 -25 l41 0 -4
183 c-3 204 -10 228 -77 270 -44 26 -175 34 -239 13z m228 -290 c0 -84 -117
-144 -199 -101 -60 30 -54 105 9 128 8 3 54 6 103 6 l87 1 0 -34z"/>
<path d="M31180 1100 l0 -240 45 0 45 0 0 153 c0 132 3 156 19 181 30 45 70
66 128 66 43 0 58 -5 83 -27 41 -37 49 -79 50 -240 l0 -133 40 0 40 0 0 173
c0 159 -2 176 -22 217 -51 98 -213 123 -320 48 l-28 -19 0 30 c0 29 -2 31 -40
31 l-40 0 0 -240z"/>
<path d="M32766 1330 c-41 -13 -90 -49 -115 -85 -72 -105 -48 -274 49 -344 93
-67 251 -64 340 8 l25 20 -29 30 c-30 31 -30 31 -50 12 -44 -41 -127 -53 -189
-27 -39 16 -97 79 -97 106 0 19 8 20 196 20 l196 0 -7 53 c-4 28 -14 69 -22
90 -19 46 -84 103 -132 117 -43 12 -125 12 -165 0z m163 -88 c30 -22 71 -79
71 -98 0 -11 -31 -14 -150 -14 -167 0 -169 1 -130 65 43 69 147 93 209 47z"/>
<path d="M33557 1325 c-59 -22 -91 -49 -121 -105 -36 -65 -39 -162 -9 -230 55
-126 235 -178 360 -104 37 21 63 50 63 68 0 2 -14 14 -31 27 l-30 21 -27 -25
c-57 -52 -115 -61 -181 -27 -94 48 -116 182 -43 263 57 64 162 66 228 5 21
-18 24 -19 53 -4 17 9 31 23 31 30 0 22 -66 74 -107 85 -52 15 -140 12 -186
-4z"/>
<path d="M34630 1322 c-82 -31 -84 -33 -64 -74 l17 -36 48 26 c61 31 143 35
183 8 30 -19 61 -80 52 -102 -4 -11 -30 -14 -111 -14 -163 0 -215 -33 -215
-137 0 -49 4 -59 33 -88 67 -67 208 -72 278 -9 18 16 19 16 19 -9 0 -25 3 -27
41 -27 l40 0 -3 189 c-3 216 -7 227 -88 269 -55 28 -162 30 -230 4z m240 -279
c0 -103 -161 -165 -227 -88 -30 34 -29 51 6 86 28 28 33 29 125 29 l96 0 0
-27z"/>
<path d="M35110 1100 l0 -240 44 0 44 0 4 153 c2 127 6 158 21 180 58 89 206
89 243 2 10 -25 14 -77 14 -185 l0 -150 45 0 45 0 0 163 c-1 214 -16 257 -105
298 -71 33 -195 19 -246 -27 -18 -17 -19 -16 -19 14 0 31 -1 32 -45 32 l-45 0
0 -240z"/>
<path d="M35838 1326 c-57 -20 -85 -42 -116 -88 -24 -37 -27 -50 -27 -129 0
-81 2 -91 30 -131 43 -61 118 -98 202 -98 65 0 123 18 155 47 17 15 18 14 18
-28 0 -129 -143 -185 -288 -113 l-59 29 -22 -32 c-11 -18 -21 -35 -21 -38 0
-4 26 -18 58 -33 69 -32 205 -42 279 -21 62 17 116 72 131 132 8 28 12 136 12
281 l0 236 -40 0 c-38 0 -40 -2 -40 -30 0 -34 -6 -37 -31 -14 -46 41 -167 56
-241 30z m182 -81 c93 -47 111 -166 36 -241 -103 -103 -276 -34 -276 108 0
117 129 188 240 133z"/>
<path d="M36456 1325 c-47 -17 -91 -57 -119 -110 -32 -60 -31 -174 3 -240 48
-93 175 -143 294 -116 49 11 126 53 126 69 0 4 -12 20 -25 35 l-25 28 -30 -25
c-56 -47 -155 -48 -215 -1 -33 25 -65 71 -65 95 0 6 66 10 196 10 l197 0 -6
54 c-10 98 -74 183 -154 205 -52 15 -130 13 -177 -4z m160 -76 c43 -20 84 -71
84 -103 0 -14 -18 -16 -150 -16 -98 0 -150 4 -150 10 0 19 27 64 52 87 49 46
101 53 164 22z"/>
<path d="M37872 1327 c-93 -35 -147 -120 -146 -232 0 -82 23 -134 78 -183 39
-34 119 -62 176 -62 52 0 135 27 166 54 l27 23 -23 31 -23 31 -39 -26 c-55
-37 -131 -42 -185 -14 -43 21 -79 62 -85 96 -3 19 4 20 191 23 l193 2 -4 54
c-7 79 -44 144 -103 181 -40 25 -60 30 -119 32 -39 1 -86 -3 -104 -10z m155
-77 c43 -19 83 -69 83 -102 0 -16 -13 -18 -143 -18 -79 0 -146 3 -150 6 -10
10 14 61 42 88 49 47 104 56 168 26z"/>
<path d="M38362 1321 c-77 -27 -86 -38 -61 -78 l21 -32 26 19 c40 29 115 43
162 30 48 -13 92 -63 88 -99 l-3 -26 -120 -5 c-94 -5 -126 -10 -148 -24 -82
-55 -73 -185 15 -233 50 -27 161 -24 216 4 41 22 42 22 42 3 0 -17 7 -20 46
-20 l46 0 -4 178 c-4 201 -13 235 -76 274 -50 31 -176 36 -250 9z m238 -285
c0 -84 -117 -144 -199 -101 -60 30 -54 105 9 128 8 3 54 6 103 6 l87 1 0 -34z"/>
<path d="M38905 1328 c-78 -29 -115 -87 -101 -160 11 -62 55 -89 173 -109 94
-16 123 -32 123 -69 0 -23 -7 -33 -32 -46 -43 -22 -148 -15 -205 15 l-42 21
-16 -31 c-9 -17 -14 -37 -11 -44 9 -25 107 -50 196 -50 133 1 200 48 200 140
0 47 -22 88 -55 103 -14 7 -67 21 -117 32 -127 28 -157 60 -102 111 22 20 35
24 88 23 36 0 75 -7 95 -17 45 -22 45 -22 64 18 l17 36 -37 16 c-46 20 -196
27 -238 11z"/>
<path d="M39300 1100 l0 -240 45 0 45 0 0 240 0 240 -45 0 -45 0 0 -240z"/>
<path d="M39720 1337 c0 -2 47 -111 105 -242 l104 -237 -19 -39 c-27 -51 -61
-73 -102 -65 -17 3 -40 13 -49 22 -17 15 -19 14 -38 -17 -12 -19 -21 -37 -21
-40 0 -15 77 -39 126 -39 63 0 104 18 133 58 14 21 207 445 268 590 4 8 -8 12
-40 12 l-45 0 -37 -87 c-21 -49 -58 -134 -83 -191 l-45 -103 -81 188 -82 188
-47 3 c-26 2 -47 1 -47 -1z"/>
<path d="M22650 960 c-25 -25 -26 -64 -2 -87 17 -17 17 -21 1 -86 l-17 -68 31
3 c29 3 32 8 59 88 15 46 28 94 28 107 0 28 -33 63 -60 63 -11 0 -29 -9 -40
-20z"/>
<path d="M40262 964 c-34 -23 -27 -83 11 -104 24 -13 30 -13 55 0 37 21 44 81
10 104 -28 20 -48 20 -76 0z"/>
</g>
</svg>
